<svg width="19" height="21" viewBox="0 0 19 16" fill="white" xmlns="http://www.w3.org/2000/svg">
<path d="M16.6891 2.72183C16.2738 2.29485 15.7806 1.95613 15.2377 1.72504C14.6949 1.49394 14.1131 1.375 13.5255 1.375C12.9379 1.375 12.3561 1.49394 11.8133 1.72504C11.2704 1.95613 10.7772 2.29485 10.3619 2.72183L9.49978 3.60756L8.63771 2.72183C7.79866 1.85976 6.66066 1.37545 5.47407 1.37545C4.28747 1.37545 3.14947 1.85976 2.31042 2.72183C1.47137 3.5839 1 4.75313 1 5.97228C1 7.19144 1.47137 8.36066 2.31042 9.22274L3.1725 10.1085L9.49978 16.6094L15.8271 10.1085L16.6891 9.22274C17.1047 8.79595 17.4344 8.28923 17.6593 7.7315C17.8842 7.17378 18 6.57599 18 5.97228C18 5.36858 17.8842 4.77079 17.6593 4.21306C17.4344 3.65534 17.1047 3.14861 16.6891 2.72183Z" fill="none" stroke="white" stroke-width="2" stroke-linecap="round" stroke-linejoin="round"/>
</svg>
